<mxfile host="app.diagrams.net" modified="2024-06-04T14:11:07.902Z" agent="Mozilla/5.0 (X11; Linux x86_64; rv:109.0) Gecko/20100101 Firefox/115.0" etag="FRN13j79bF2MxE7xPyqV" version="24.4.13" type="device">
  <diagram name="Page-1" id="eKCKNtZOuxgVORMuDA98">
    <mxGraphModel dx="1434" dy="707" grid="1" gridSize="10" guides="1" tooltips="1" connect="1" arrows="1" fold="1" page="1" pageScale="1" pageWidth="827" pageHeight="1169" math="0" shadow="0">
      <root>
        <mxCell id="0" />
        <mxCell id="1" parent="0" />
        <mxCell id="FHRovXxU-aTZrbRf6lEy-5" value="Arete" style="swimlane;fontStyle=1;align=center;verticalAlign=top;childLayout=stackLayout;horizontal=1;startSize=26;horizontalStack=0;resizeParent=1;resizeParentMax=0;resizeLast=0;collapsible=1;marginBottom=0;whiteSpace=wrap;html=1;fillColor=#f5f5f5;strokeColor=#666666;fontColor=#333333;" parent="1" vertex="1">
          <mxGeometry x="1300" y="40" width="400" height="210" as="geometry" />
        </mxCell>
        <mxCell id="FHRovXxU-aTZrbRf6lEy-6" value="- poids: Map&amp;lt;TypeCout, Double&amp;gt;&lt;div&gt;&lt;br&gt;&lt;/div&gt;" style="text;strokeColor=#d6b656;fillColor=#fff2cc;align=left;verticalAlign=top;spacingLeft=4;spacingRight=4;overflow=hidden;rotatable=0;points=[[0,0.5],[1,0.5]];portConstraint=eastwest;whiteSpace=wrap;html=1;" parent="FHRovXxU-aTZrbRf6lEy-5" vertex="1">
          <mxGeometry y="26" width="400" height="34" as="geometry" />
        </mxCell>
        <mxCell id="FHRovXxU-aTZrbRf6lEy-9" value="&lt;div style=&quot;line-height: 140%;&quot;&gt;+ Arete(Sommet, Sommet, ModaliteTransport, Map&amp;lt;TypeCout, Double&amp;gt;)&lt;/div&gt;&lt;div style=&quot;line-height: 140%;&quot;&gt;+ getDepart() : Lieu&lt;/div&gt;&lt;div style=&quot;line-height: 140%;&quot;&gt;+ getArrivee() : Lieu&lt;/div&gt;&lt;div style=&quot;line-height: 140%;&quot;&gt;+ getModalite() : ModaliteTransport&lt;/div&gt;&lt;div style=&quot;line-height: 140%;&quot;&gt;+ toString() : String&lt;/div&gt;&lt;div style=&quot;line-height: 140%;&quot;&gt;+ getPoids() : Map&amp;lt;TypeCout, Double&amp;gt;&lt;/div&gt;&lt;div style=&quot;line-height: 140%;&quot;&gt;+ equals() : boolean&lt;/div&gt;&lt;div style=&quot;line-height: 140%;&quot;&gt;+ hashCode() : int&lt;/div&gt;" style="text;strokeColor=#d79b00;fillColor=#ffe6cc;align=left;verticalAlign=top;spacingLeft=4;spacingRight=4;overflow=hidden;rotatable=0;points=[[0,0.5],[1,0.5]];portConstraint=eastwest;whiteSpace=wrap;html=1;" parent="FHRovXxU-aTZrbRf6lEy-5" vertex="1">
          <mxGeometry y="60" width="400" height="150" as="geometry" />
        </mxCell>
        <mxCell id="FHRovXxU-aTZrbRf6lEy-17" value="&lt;div&gt;≪interface≫&lt;/div&gt;&lt;div&gt;Trancon&lt;/div&gt;" style="swimlane;fontStyle=1;align=center;verticalAlign=top;childLayout=stackLayout;horizontal=1;startSize=40;horizontalStack=0;resizeParent=1;resizeParentMax=0;resizeLast=0;collapsible=1;marginBottom=0;whiteSpace=wrap;html=1;fillColor=#f5f5f5;strokeColor=#666666;fontColor=#333333;" parent="1" vertex="1">
          <mxGeometry x="1820" y="50" width="390" height="134" as="geometry" />
        </mxCell>
        <mxCell id="FHRovXxU-aTZrbRf6lEy-18" value="&lt;div&gt;...&lt;/div&gt;&lt;div&gt;&lt;br&gt;&lt;/div&gt;" style="text;strokeColor=#d6b656;fillColor=#fff2cc;align=left;verticalAlign=top;spacingLeft=4;spacingRight=4;overflow=hidden;rotatable=0;points=[[0,0.5],[1,0.5]];portConstraint=eastwest;whiteSpace=wrap;html=1;" parent="FHRovXxU-aTZrbRf6lEy-17" vertex="1">
          <mxGeometry y="40" width="390" height="34" as="geometry" />
        </mxCell>
        <mxCell id="FHRovXxU-aTZrbRf6lEy-19" value="&lt;div&gt;&amp;nbsp;getDepart() : Lieu&lt;br&gt;&lt;/div&gt;&lt;div&gt;&amp;nbsp;getArrivee() : Lieu&lt;br&gt;&amp;nbsp;getModalite() : ModaliteTransport&lt;/div&gt;&lt;div&gt;&lt;br&gt;&lt;/div&gt;" style="text;strokeColor=#d79b00;fillColor=#ffe6cc;align=left;verticalAlign=top;spacingLeft=4;spacingRight=4;overflow=hidden;rotatable=0;points=[[0,0.5],[1,0.5]];portConstraint=eastwest;whiteSpace=wrap;html=1;" parent="FHRovXxU-aTZrbRf6lEy-17" vertex="1">
          <mxGeometry y="74" width="390" height="60" as="geometry" />
        </mxCell>
        <mxCell id="FHRovXxU-aTZrbRf6lEy-28" style="edgeStyle=orthogonalEdgeStyle;rounded=0;orthogonalLoop=1;jettySize=auto;html=1;entryX=-0.006;entryY=0.221;entryDx=0;entryDy=0;entryPerimeter=0;dashed=1;strokeColor=default;endArrow=block;endFill=0;" parent="1" source="FHRovXxU-aTZrbRf6lEy-6" target="FHRovXxU-aTZrbRf6lEy-18" edge="1">
          <mxGeometry relative="1" as="geometry">
            <Array as="points">
              <mxPoint x="1770" y="83" />
              <mxPoint x="1770" y="97" />
            </Array>
          </mxGeometry>
        </mxCell>
        <mxCell id="FHRovXxU-aTZrbRf6lEy-35" value="Sommet" style="swimlane;fontStyle=1;align=center;verticalAlign=top;childLayout=stackLayout;horizontal=1;startSize=26;horizontalStack=0;resizeParent=1;resizeParentMax=0;resizeLast=0;collapsible=1;marginBottom=0;whiteSpace=wrap;html=1;fillColor=#f5f5f5;fontColor=#333333;strokeColor=#666666;" parent="1" vertex="1">
          <mxGeometry x="90" y="40" width="620" height="230" as="geometry" />
        </mxCell>
        <mxCell id="FHRovXxU-aTZrbRf6lEy-36" value="- nom : String&lt;div&gt;+ NB_MODALITE : int&lt;br&gt;&lt;div&gt;- correspondance : Map&amp;lt;ModaliteTransport[], Map&amp;lt;TypeCout, Double&amp;gt;&amp;gt;&lt;/div&gt;&lt;/div&gt;" style="text;strokeColor=#d6b656;fillColor=#fff2cc;align=left;verticalAlign=top;spacingLeft=4;spacingRight=4;overflow=hidden;rotatable=0;points=[[0,0.5],[1,0.5]];portConstraint=eastwest;whiteSpace=wrap;html=1;" parent="FHRovXxU-aTZrbRf6lEy-35" vertex="1">
          <mxGeometry y="26" width="620" height="74" as="geometry" />
        </mxCell>
        <mxCell id="FHRovXxU-aTZrbRf6lEy-37" value="&lt;div&gt;+ Sommet(String, String)&lt;br&gt;&lt;/div&gt;&lt;div&gt;+ toString() : String&lt;/div&gt;&lt;div&gt;+ equals() : boolean&lt;/div&gt;&lt;div&gt;+ hashCode() : int&lt;/div&gt;&lt;div&gt;- CSVToString(File) : ArrayList&amp;lt;ArrayList&amp;lt;String&amp;gt;&amp;gt;&lt;/div&gt;&lt;div&gt;- rangementDesDonnee(&lt;span style=&quot;background-color: initial;&quot;&gt;ArrayList&amp;lt;ArrayList&amp;lt;String&amp;gt;&amp;gt;, int) :&amp;nbsp;&lt;/span&gt;&lt;span style=&quot;background-color: initial;&quot;&gt;Map&amp;lt;ModaliteTransport[], Map&amp;lt;TypeCout, Double&amp;gt;&amp;gt;&lt;/span&gt;&lt;/div&gt;&lt;div&gt;&lt;span style=&quot;background-color: initial;&quot;&gt;+ getCorrespondance() :&amp;nbsp;&lt;/span&gt;&lt;span style=&quot;background-color: initial;&quot;&gt;Map&amp;lt;ModaliteTransport[], Map&amp;lt;TypeCout, Double&amp;gt;&amp;gt;&lt;/span&gt;&lt;/div&gt;" style="text;strokeColor=#d79b00;fillColor=#ffe6cc;align=left;verticalAlign=top;spacingLeft=4;spacingRight=4;overflow=hidden;rotatable=0;points=[[0,0.5],[1,0.5]];portConstraint=eastwest;whiteSpace=wrap;html=1;" parent="FHRovXxU-aTZrbRf6lEy-35" vertex="1">
          <mxGeometry y="100" width="620" height="130" as="geometry" />
        </mxCell>
        <mxCell id="FHRovXxU-aTZrbRf6lEy-39" value="&lt;div&gt;≪interface≫&lt;/div&gt;&lt;div&gt;Lieu&lt;/div&gt;&lt;div&gt;&lt;br&gt;&lt;/div&gt;" style="swimlane;fontStyle=1;align=center;verticalAlign=top;childLayout=stackLayout;horizontal=1;startSize=40;horizontalStack=0;resizeParent=1;resizeParentMax=0;resizeLast=0;collapsible=1;marginBottom=0;whiteSpace=wrap;html=1;fillColor=#f5f5f5;strokeColor=#666666;fontColor=#333333;" parent="1" vertex="1">
          <mxGeometry x="960" y="48" width="200" height="134" as="geometry" />
        </mxCell>
        <mxCell id="FHRovXxU-aTZrbRf6lEy-40" value="&lt;div&gt;...&lt;/div&gt;&lt;div&gt;&lt;br&gt;&lt;/div&gt;" style="text;strokeColor=#d6b656;fillColor=#fff2cc;align=left;verticalAlign=top;spacingLeft=4;spacingRight=4;overflow=hidden;rotatable=0;points=[[0,0.5],[1,0.5]];portConstraint=eastwest;whiteSpace=wrap;html=1;" parent="FHRovXxU-aTZrbRf6lEy-39" vertex="1">
          <mxGeometry y="40" width="200" height="34" as="geometry" />
        </mxCell>
        <mxCell id="FHRovXxU-aTZrbRf6lEy-41" value="&lt;div style=&quot;line-height: 140%;&quot;&gt;&amp;nbsp;getDepart() : Lieu&lt;br&gt;&lt;/div&gt;&lt;div style=&quot;line-height: 140%;&quot;&gt;&amp;nbsp;getArrivee() : Lieu&lt;br&gt;&amp;nbsp;getModalite() : ModaliteTransport&lt;/div&gt;&lt;div&gt;&lt;br&gt;&lt;/div&gt;" style="text;strokeColor=#d79b00;fillColor=#ffe6cc;align=left;verticalAlign=top;spacingLeft=4;spacingRight=4;overflow=hidden;rotatable=0;points=[[0,0.5],[1,0.5]];portConstraint=eastwest;whiteSpace=wrap;html=1;" parent="FHRovXxU-aTZrbRf6lEy-39" vertex="1">
          <mxGeometry y="74" width="200" height="60" as="geometry" />
        </mxCell>
        <mxCell id="FHRovXxU-aTZrbRf6lEy-46" style="edgeStyle=orthogonalEdgeStyle;rounded=0;orthogonalLoop=1;jettySize=auto;html=1;entryX=1;entryY=0.235;entryDx=0;entryDy=0;entryPerimeter=0;strokeWidth=1;endArrow=classic;endFill=1;" parent="1" source="FHRovXxU-aTZrbRf6lEy-6" target="FHRovXxU-aTZrbRf6lEy-40" edge="1">
          <mxGeometry relative="1" as="geometry" />
        </mxCell>
        <mxCell id="FHRovXxU-aTZrbRf6lEy-52" value="&lt;div&gt;- depart, arrivee&lt;br&gt;&lt;/div&gt;" style="text;whiteSpace=wrap;html=1;" parent="1" vertex="1">
          <mxGeometry x="1170" y="97" width="100" height="40" as="geometry" />
        </mxCell>
        <mxCell id="FHRovXxU-aTZrbRf6lEy-53" value="2" style="text;whiteSpace=wrap;" parent="1" vertex="1">
          <mxGeometry x="1170" y="70" width="50" height="40" as="geometry" />
        </mxCell>
        <mxCell id="FHRovXxU-aTZrbRf6lEy-55" value="&lt;div&gt;&amp;lt;&amp;lt;enum&amp;gt;&amp;gt;&lt;/div&gt;ModaliteTransport" style="swimlane;fontStyle=1;align=center;verticalAlign=top;childLayout=stackLayout;horizontal=1;startSize=40;horizontalStack=0;resizeParent=1;resizeParentMax=0;resizeLast=0;collapsible=1;marginBottom=0;whiteSpace=wrap;html=1;fillColor=#f5f5f5;strokeColor=#666666;fontColor=#333333;" parent="1" vertex="1">
          <mxGeometry x="1820" y="210" width="180" height="130" as="geometry" />
        </mxCell>
        <mxCell id="FHRovXxU-aTZrbRf6lEy-56" value="&lt;div&gt;TRAIN&lt;/div&gt;&lt;div&gt;AVION&lt;/div&gt;&lt;div&gt;BUS&lt;/div&gt;" style="text;align=left;verticalAlign=top;spacingLeft=4;spacingRight=4;overflow=hidden;rotatable=0;points=[[0,0.5],[1,0.5]];portConstraint=eastwest;whiteSpace=wrap;html=1;fillColor=#fff2cc;strokeColor=#d6b656;" parent="FHRovXxU-aTZrbRf6lEy-55" vertex="1">
          <mxGeometry y="40" width="180" height="60" as="geometry" />
        </mxCell>
        <mxCell id="FHRovXxU-aTZrbRf6lEy-57" value="&lt;div&gt;...&lt;/div&gt;&lt;div&gt;&lt;br&gt;&lt;/div&gt;" style="text;align=left;verticalAlign=top;spacingLeft=4;spacingRight=4;overflow=hidden;rotatable=0;points=[[0,0.5],[1,0.5]];portConstraint=eastwest;whiteSpace=wrap;html=1;fillColor=#ffe6cc;strokeColor=#d79b00;" parent="FHRovXxU-aTZrbRf6lEy-55" vertex="1">
          <mxGeometry y="100" width="180" height="30" as="geometry" />
        </mxCell>
        <mxCell id="FHRovXxU-aTZrbRf6lEy-61" style="edgeStyle=orthogonalEdgeStyle;rounded=0;orthogonalLoop=1;jettySize=auto;html=1;entryX=0;entryY=0.5;entryDx=0;entryDy=0;exitX=1;exitY=0.81;exitDx=0;exitDy=0;exitPerimeter=0;" parent="1" source="FHRovXxU-aTZrbRf6lEy-6" target="FHRovXxU-aTZrbRf6lEy-56" edge="1">
          <mxGeometry relative="1" as="geometry" />
        </mxCell>
        <mxCell id="FHRovXxU-aTZrbRf6lEy-62" value="&lt;span style=&quot;white-space: pre;&quot;&gt;&#x9;&lt;/span&gt;&lt;span style=&quot;white-space: pre;&quot;&gt;&#x9;&lt;/span&gt;1&lt;br&gt;&lt;div&gt;&lt;br&gt;&lt;/div&gt;&lt;div&gt;- modalite&lt;/div&gt;" style="text;whiteSpace=wrap;html=1;" parent="1" vertex="1">
          <mxGeometry x="1750" y="250" width="70" height="50" as="geometry" />
        </mxCell>
        <mxCell id="FHRovXxU-aTZrbRf6lEy-63" value="Plateforme" style="swimlane;fontStyle=1;align=center;verticalAlign=top;childLayout=stackLayout;horizontal=1;startSize=26;horizontalStack=0;resizeParent=1;resizeParentMax=0;resizeLast=0;collapsible=1;marginBottom=0;whiteSpace=wrap;html=1;fillColor=#f5f5f5;strokeColor=#666666;fontColor=#333333;" parent="1" vertex="1">
          <mxGeometry x="260" y="366" width="570" height="310" as="geometry" />
        </mxCell>
        <mxCell id="FHRovXxU-aTZrbRf6lEy-64" value="&lt;div&gt;- NB_VOYAGE_ELIGIBLE: int&lt;/div&gt;&lt;div&gt;- NB_DONNEES: int&lt;/div&gt;&lt;div&gt;&lt;br&gt;&lt;/div&gt;" style="text;strokeColor=#d6b656;fillColor=#fff2cc;align=left;verticalAlign=top;spacingLeft=4;spacingRight=4;overflow=hidden;rotatable=0;points=[[0,0.5],[1,0.5]];portConstraint=eastwest;whiteSpace=wrap;html=1;" parent="FHRovXxU-aTZrbRf6lEy-63" vertex="1">
          <mxGeometry y="26" width="570" height="44" as="geometry" />
        </mxCell>
        <mxCell id="FHRovXxU-aTZrbRf6lEy-67" value="&lt;div&gt;&lt;div&gt;+ Plateforme(String[], int, Voyageur, String)&lt;/div&gt;&lt;div&gt;+ getEnsembleSommet() : ArrayList&amp;lt;Sommet&amp;gt;&lt;/div&gt;&lt;div&gt;+ getEnsembleArete() : ArrayList&amp;lt;Arete&amp;gt;&lt;br&gt;&lt;/div&gt;&lt;div&gt;+ cptDonnée(String) : int&lt;/div&gt;&lt;div&gt;+ checkPtVirgule(String[]) : boolean&lt;/div&gt;&lt;div&gt;+ getInfo(String[]) : ArrayList&amp;lt;ArrayList&amp;lt;String&amp;gt;&amp;gt;&lt;/div&gt;&lt;div&gt;- subSemiCol(String, int) : String&lt;/div&gt;&lt;div&gt;- transportToString(ModaliteTransport) : String&lt;/div&gt;&lt;div&gt;- filtrageSelonTransport(&lt;span style=&quot;background-color: initial;&quot;&gt;ArrayList&amp;lt;ArrayList&amp;lt;String&amp;gt;&amp;gt;&lt;/span&gt;&lt;span style=&quot;background-color: initial;&quot;&gt;) :&amp;nbsp;&lt;/span&gt;&lt;span style=&quot;background-color: initial;&quot;&gt;ArrayList&amp;lt;ArrayList&amp;lt;String&amp;gt;&amp;gt;&lt;/span&gt;&lt;/div&gt;&lt;div&gt;+ graphSelonMod(String[], int&lt;span style=&quot;background-color: initial;&quot;&gt;) : MultiGrapheOrienteValue&lt;/span&gt;&lt;/div&gt;&lt;/div&gt;&lt;div&gt;+ plusCourtChemin(Sommet, Sommet, MultiGrapheOrienteValue) : List&amp;lt;Route&amp;gt;&lt;/div&gt;&lt;div&gt;- filtreSelonCritSec(List&amp;lt;Chemin&amp;gt;) : List&amp;lt;Chemin&amp;gt;&lt;/div&gt;&lt;div&gt;+ voyagePossible(&lt;span style=&quot;background-color: initial;&quot;&gt;MultiGrapheOrienteValue, Sommet, Sommet) : boolean&lt;/span&gt;&lt;/div&gt;&lt;div&gt;&lt;span style=&quot;background-color: initial;&quot;&gt;+ affichage(List&amp;lt;Route&amp;gt;) : String&lt;/span&gt;&lt;/div&gt;&lt;div&gt;&lt;span style=&quot;background-color: initial;&quot;&gt;- changementTransport(Chemin) : String&lt;/span&gt;&lt;/div&gt;&lt;div&gt;&lt;span style=&quot;background-color: initial;&quot;&gt;- coutSuppSiChange(List&amp;lt;Chemin&amp;gt;) : List&amp;lt;Route&amp;gt;&lt;/span&gt;&lt;/div&gt;&lt;div&gt;&lt;br&gt;&lt;/div&gt;" style="text;strokeColor=#d79b00;fillColor=#ffe6cc;align=left;verticalAlign=top;spacingLeft=4;spacingRight=4;overflow=hidden;rotatable=0;points=[[0,0.5],[1,0.5]];portConstraint=eastwest;whiteSpace=wrap;html=1;" parent="FHRovXxU-aTZrbRf6lEy-63" vertex="1">
          <mxGeometry y="70" width="570" height="240" as="geometry" />
        </mxCell>
        <mxCell id="vIz2ECk9xMVI1TB96n5O-2" value="" style="endArrow=classic;html=1;rounded=0;entryX=0.75;entryY=0;entryDx=0;entryDy=0;exitX=1;exitY=0.071;exitDx=0;exitDy=0;exitPerimeter=0;" parent="1" source="FHRovXxU-aTZrbRf6lEy-63" target="vIz2ECk9xMVI1TB96n5O-6" edge="1">
          <mxGeometry width="50" height="50" relative="1" as="geometry">
            <mxPoint x="1100" y="378" as="sourcePoint" />
            <mxPoint x="1610" y="350" as="targetPoint" />
            <Array as="points">
              <mxPoint x="1475" y="380" />
            </Array>
          </mxGeometry>
        </mxCell>
        <mxCell id="vIz2ECk9xMVI1TB96n5O-3" value="" style="endArrow=classic;html=1;rounded=0;exitX=0.332;exitY=-0.006;exitDx=0;exitDy=0;exitPerimeter=0;entryX=0.95;entryY=0.067;entryDx=0;entryDy=0;entryPerimeter=0;" parent="1" source="FHRovXxU-aTZrbRf6lEy-63" target="vIz2ECk9xMVI1TB96n5O-4" edge="1">
          <mxGeometry width="50" height="50" relative="1" as="geometry">
            <mxPoint x="324" y="196" as="sourcePoint" />
            <mxPoint x="350" y="226" as="targetPoint" />
          </mxGeometry>
        </mxCell>
        <mxCell id="vIz2ECk9xMVI1TB96n5O-4" value="0...&lt;span style=&quot;background-color: initial;&quot;&gt;*&lt;/span&gt;" style="text;html=1;align=center;verticalAlign=middle;resizable=0;points=[];autosize=1;strokeColor=none;fillColor=none;" parent="1" vertex="1">
          <mxGeometry x="410" y="270" width="40" height="30" as="geometry" />
        </mxCell>
        <mxCell id="vIz2ECk9xMVI1TB96n5O-5" value="-&amp;nbsp;&lt;span style=&quot;background-color: initial;&quot;&gt;ensembleSommet&lt;/span&gt;" style="text;html=1;align=center;verticalAlign=middle;resizable=0;points=[];autosize=1;strokeColor=none;fillColor=none;" parent="1" vertex="1">
          <mxGeometry x="450" y="270" width="130" height="30" as="geometry" />
        </mxCell>
        <mxCell id="vIz2ECk9xMVI1TB96n5O-6" value="0...*" style="text;html=1;align=center;verticalAlign=middle;whiteSpace=wrap;rounded=0;" parent="1" vertex="1">
          <mxGeometry x="1430" y="250" width="60" height="30" as="geometry" />
        </mxCell>
        <mxCell id="vIz2ECk9xMVI1TB96n5O-7" value="- ensembleArete" style="text;html=1;align=center;verticalAlign=middle;resizable=0;points=[];autosize=1;strokeColor=none;fillColor=none;" parent="1" vertex="1">
          <mxGeometry x="1480" y="250" width="110" height="30" as="geometry" />
        </mxCell>
        <mxCell id="vIz2ECk9xMVI1TB96n5O-10" value="GenGraph" style="swimlane;fontStyle=1;align=center;verticalAlign=top;childLayout=stackLayout;horizontal=1;startSize=26;horizontalStack=0;resizeParent=1;resizeParentMax=0;resizeLast=0;collapsible=1;marginBottom=0;whiteSpace=wrap;html=1;fillColor=#f5f5f5;strokeColor=#666666;fontColor=#333333;" parent="1" vertex="1">
          <mxGeometry x="1550" y="440" width="610" height="180" as="geometry" />
        </mxCell>
        <mxCell id="vIz2ECk9xMVI1TB96n5O-11" value="- csvFile : String " style="text;strokeColor=#d6b656;fillColor=#fff2cc;align=left;verticalAlign=top;spacingLeft=4;spacingRight=4;overflow=hidden;rotatable=0;points=[[0,0.5],[1,0.5]];portConstraint=eastwest;whiteSpace=wrap;html=1;" parent="vIz2ECk9xMVI1TB96n5O-10" vertex="1">
          <mxGeometry y="26" width="610" height="54" as="geometry" />
        </mxCell>
        <mxCell id="vIz2ECk9xMVI1TB96n5O-12" value="&lt;div style=&quot;line-height: 140%;&quot;&gt;+ GenGraph(String)&lt;br&gt;&lt;/div&gt;&lt;div style=&quot;line-height: 140%;&quot;&gt;+ creatArete(&lt;span style=&quot;background-color: initial;&quot;&gt;ArrayList&amp;lt;ArrayList&amp;lt;String&amp;gt;&amp;gt;, ArrayList&amp;lt;Sommet&amp;gt;, int) : ArrayList&amp;lt;Arete&amp;gt;&lt;/span&gt;&lt;/div&gt;&lt;div style=&quot;line-height: 140%;&quot;&gt;&lt;span style=&quot;background-color: initial;&quot;&gt;- rechercheSommet(ArrayList&amp;lt;Sommet&amp;gt;, String) : Sommet&lt;/span&gt;&lt;/div&gt;&lt;div style=&quot;line-height: 140%;&quot;&gt;&lt;span style=&quot;background-color: initial;&quot;&gt;+ creatSommet(&lt;/span&gt;&lt;span style=&quot;background-color: initial;&quot;&gt;ArrayList&amp;lt;ArrayList&amp;lt;String&amp;gt;&amp;gt;) : ArrayList&amp;lt;Sommet&amp;gt;&lt;/span&gt;&lt;/div&gt;&lt;div style=&quot;line-height: 140%;&quot;&gt;&lt;span style=&quot;background-color: initial;&quot;&gt;+ creationGraph(&lt;/span&gt;&lt;span style=&quot;background-color: initial;&quot;&gt;ArrayList&amp;lt;ArrayList&amp;lt;String&amp;gt;&amp;gt;, int, TypeCout, ArrayList&amp;lt;Sommet&amp;gt; :&amp;nbsp;&lt;/span&gt;&lt;span style=&quot;background-color: initial;&quot;&gt;MultiGrapheOrienteValue&lt;/span&gt;&lt;/div&gt;" style="text;strokeColor=#d79b00;fillColor=#ffe6cc;align=left;verticalAlign=top;spacingLeft=4;spacingRight=4;overflow=hidden;rotatable=0;points=[[0,0.5],[1,0.5]];portConstraint=eastwest;whiteSpace=wrap;html=1;" parent="vIz2ECk9xMVI1TB96n5O-10" vertex="1">
          <mxGeometry y="80" width="610" height="100" as="geometry" />
        </mxCell>
        <mxCell id="vIz2ECk9xMVI1TB96n5O-14" value="1" style="text;html=1;align=center;verticalAlign=middle;resizable=0;points=[];autosize=1;strokeColor=none;fillColor=none;" parent="1" vertex="1">
          <mxGeometry x="1500" y="440" width="30" height="30" as="geometry" />
        </mxCell>
        <mxCell id="vIz2ECk9xMVI1TB96n5O-15" value="- generateur" style="text;html=1;align=center;verticalAlign=middle;resizable=0;points=[];autosize=1;strokeColor=none;fillColor=none;" parent="1" vertex="1">
          <mxGeometry x="1460" y="470" width="90" height="30" as="geometry" />
        </mxCell>
        <mxCell id="vIz2ECk9xMVI1TB96n5O-13" value="" style="endArrow=classic;html=1;rounded=0;exitX=1;exitY=0.154;exitDx=0;exitDy=0;entryX=0.004;entryY=0.116;entryDx=0;entryDy=0;entryPerimeter=0;exitPerimeter=0;" parent="1" source="FHRovXxU-aTZrbRf6lEy-67" target="vIz2ECk9xMVI1TB96n5O-11" edge="1">
          <mxGeometry width="50" height="50" relative="1" as="geometry">
            <mxPoint x="1100" y="469.52" as="sourcePoint" />
            <mxPoint x="1310" y="460" as="targetPoint" />
            <Array as="points" />
          </mxGeometry>
        </mxCell>
        <mxCell id="vIz2ECk9xMVI1TB96n5O-17" value="&lt;div&gt;&amp;lt;&amp;lt;enum&amp;gt;&amp;gt;&lt;/div&gt;TypeCout" style="swimlane;fontStyle=1;align=center;verticalAlign=top;childLayout=stackLayout;horizontal=1;startSize=40;horizontalStack=0;resizeParent=1;resizeParentMax=0;resizeLast=0;collapsible=1;marginBottom=0;whiteSpace=wrap;html=1;fillColor=#f5f5f5;strokeColor=#666666;fontColor=#333333;" parent="1" vertex="1">
          <mxGeometry x="1080" y="730" width="130" height="130" as="geometry">
            <mxRectangle x="1360" y="210" width="100" height="40" as="alternateBounds" />
          </mxGeometry>
        </mxCell>
        <mxCell id="vIz2ECk9xMVI1TB96n5O-18" value="&lt;div&gt;PRIX&lt;/div&gt;&lt;div&gt;CO2&lt;/div&gt;&lt;div&gt;TEMPS&lt;/div&gt;" style="text;align=left;verticalAlign=top;spacingLeft=4;spacingRight=4;overflow=hidden;rotatable=0;points=[[0,0.5],[1,0.5]];portConstraint=eastwest;whiteSpace=wrap;html=1;fillColor=#fff2cc;strokeColor=#d6b656;" parent="vIz2ECk9xMVI1TB96n5O-17" vertex="1">
          <mxGeometry y="40" width="130" height="60" as="geometry" />
        </mxCell>
        <mxCell id="vIz2ECk9xMVI1TB96n5O-19" value="&lt;div&gt;...&lt;/div&gt;&lt;div&gt;&lt;br&gt;&lt;/div&gt;" style="text;align=left;verticalAlign=top;spacingLeft=4;spacingRight=4;overflow=hidden;rotatable=0;points=[[0,0.5],[1,0.5]];portConstraint=eastwest;whiteSpace=wrap;html=1;fillColor=#ffe6cc;strokeColor=#d79b00;" parent="vIz2ECk9xMVI1TB96n5O-17" vertex="1">
          <mxGeometry y="100" width="130" height="30" as="geometry" />
        </mxCell>
        <mxCell id="2iQoV5b_-APFQ94S1e94-1" value="Voyageur" style="swimlane;fontStyle=1;align=center;verticalAlign=top;childLayout=stackLayout;horizontal=1;startSize=26;horizontalStack=0;resizeParent=1;resizeParentMax=0;resizeLast=0;collapsible=1;marginBottom=0;whiteSpace=wrap;html=1;fillColor=#f5f5f5;strokeColor=#666666;fontColor=#333333;" parent="1" vertex="1">
          <mxGeometry x="1480" y="690" width="590" height="190" as="geometry" />
        </mxCell>
        <mxCell id="2iQoV5b_-APFQ94S1e94-2" value="&lt;div&gt;&lt;span style=&quot;background-color: initial;&quot;&gt;- borneCritSec : double&lt;/span&gt;&lt;br&gt;&lt;/div&gt;" style="text;strokeColor=#d6b656;fillColor=#fff2cc;align=left;verticalAlign=top;spacingLeft=4;spacingRight=4;overflow=hidden;rotatable=0;points=[[0,0.5],[1,0.5]];portConstraint=eastwest;whiteSpace=wrap;html=1;" parent="2iQoV5b_-APFQ94S1e94-1" vertex="1">
          <mxGeometry y="26" width="590" height="44" as="geometry" />
        </mxCell>
        <mxCell id="2iQoV5b_-APFQ94S1e94-3" value="&lt;div style=&quot;line-height: 140%;&quot;&gt;&lt;span style=&quot;background-color: initial;&quot;&gt;+ Voyageur(TypeCout, ModaliteTransport, TypeCout, double)&lt;br&gt;&lt;/span&gt;&lt;/div&gt;&lt;div style=&quot;line-height: 140%;&quot;&gt;&lt;span style=&quot;background-color: initial;&quot;&gt;+ Voyageur(TypeCout, ModaliteTransport)&lt;/span&gt;&lt;/div&gt;&lt;div style=&quot;line-height: 140%;&quot;&gt;&lt;span style=&quot;background-color: initial;&quot;&gt;+ getCritereAOptimiser : TypeCout&lt;/span&gt;&lt;br&gt;&lt;/div&gt;&lt;div style=&quot;line-height: 140%;&quot;&gt;+ getModeDeDeplacement() : ModaliteTransport&lt;/div&gt;&lt;div style=&quot;line-height: 140%;&quot;&gt;+ getCritereSecondaire() : TypeCout&lt;/div&gt;&lt;div style=&quot;line-height: 140%;&quot;&gt;+ getBorneSec() : double&lt;/div&gt;" style="text;strokeColor=#d79b00;fillColor=#ffe6cc;align=left;verticalAlign=top;spacingLeft=4;spacingRight=4;overflow=hidden;rotatable=0;points=[[0,0.5],[1,0.5]];portConstraint=eastwest;whiteSpace=wrap;html=1;" parent="2iQoV5b_-APFQ94S1e94-1" vertex="1">
          <mxGeometry y="70" width="590" height="120" as="geometry" />
        </mxCell>
        <mxCell id="2iQoV5b_-APFQ94S1e94-5" value="" style="endArrow=classic;html=1;rounded=0;entryX=1;entryY=0.5;entryDx=0;entryDy=0;exitX=0.998;exitY=0.977;exitDx=0;exitDy=0;exitPerimeter=0;" parent="1" source="2iQoV5b_-APFQ94S1e94-2" target="FHRovXxU-aTZrbRf6lEy-56" edge="1">
          <mxGeometry width="50" height="50" relative="1" as="geometry">
            <mxPoint x="2120" y="710" as="sourcePoint" />
            <mxPoint x="2000" y="320" as="targetPoint" />
            <Array as="points">
              <mxPoint x="2250" y="760" />
              <mxPoint x="2250" y="280" />
            </Array>
          </mxGeometry>
        </mxCell>
        <mxCell id="2iQoV5b_-APFQ94S1e94-6" value="1" style="text;html=1;align=center;verticalAlign=middle;resizable=0;points=[];autosize=1;strokeColor=none;fillColor=none;" parent="1" vertex="1">
          <mxGeometry x="2000" y="250" width="30" height="30" as="geometry" />
        </mxCell>
        <mxCell id="2iQoV5b_-APFQ94S1e94-7" value="- modeDeDeplacement" style="text;html=1;align=center;verticalAlign=middle;resizable=0;points=[];autosize=1;strokeColor=none;fillColor=none;" parent="1" vertex="1">
          <mxGeometry x="2000" y="280" width="150" height="30" as="geometry" />
        </mxCell>
        <mxCell id="2iQoV5b_-APFQ94S1e94-8" value="" style="endArrow=classic;html=1;rounded=0;entryX=1;entryY=0.5;entryDx=0;entryDy=0;" parent="1" target="vIz2ECk9xMVI1TB96n5O-18" edge="1">
          <mxGeometry width="50" height="50" relative="1" as="geometry">
            <mxPoint x="1480" y="800" as="sourcePoint" />
            <mxPoint x="1390" y="720" as="targetPoint" />
          </mxGeometry>
        </mxCell>
        <mxCell id="2iQoV5b_-APFQ94S1e94-9" value="2" style="text;html=1;align=center;verticalAlign=middle;resizable=0;points=[];autosize=1;strokeColor=none;fillColor=none;" parent="1" vertex="1">
          <mxGeometry x="1220" y="770" width="30" height="30" as="geometry" />
        </mxCell>
        <mxCell id="2iQoV5b_-APFQ94S1e94-10" value="- critereAOptimiser, critereSecondaire" style="text;html=1;align=center;verticalAlign=middle;resizable=0;points=[];autosize=1;strokeColor=none;fillColor=none;" parent="1" vertex="1">
          <mxGeometry x="1210" y="800" width="220" height="30" as="geometry" />
        </mxCell>
        <mxCell id="2iQoV5b_-APFQ94S1e94-11" value="" style="endArrow=classic;html=1;rounded=0;entryX=0;entryY=0.118;entryDx=0;entryDy=0;entryPerimeter=0;" parent="1" source="FHRovXxU-aTZrbRf6lEy-67" target="2iQoV5b_-APFQ94S1e94-2" edge="1">
          <mxGeometry width="50" height="50" relative="1" as="geometry">
            <mxPoint x="1100" y="510" as="sourcePoint" />
            <mxPoint x="1440" y="610" as="targetPoint" />
            <Array as="points">
              <mxPoint x="1410" y="540" />
              <mxPoint x="1410" y="720" />
            </Array>
          </mxGeometry>
        </mxCell>
        <mxCell id="2iQoV5b_-APFQ94S1e94-12" value="1" style="text;html=1;align=center;verticalAlign=middle;resizable=0;points=[];autosize=1;strokeColor=none;fillColor=none;" parent="1" vertex="1">
          <mxGeometry x="1450" y="690" width="30" height="30" as="geometry" />
        </mxCell>
        <mxCell id="2iQoV5b_-APFQ94S1e94-13" value="- user" style="text;html=1;align=center;verticalAlign=middle;resizable=0;points=[];autosize=1;strokeColor=none;fillColor=none;" parent="1" vertex="1">
          <mxGeometry x="1430" y="720" width="50" height="30" as="geometry" />
        </mxCell>
        <mxCell id="nLrEIry3QS9Q7PKGFImk-1" value="&lt;div&gt;≪interface≫&lt;/div&gt;&lt;div&gt;Chemin&lt;/div&gt;&lt;div&gt;&lt;br&gt;&lt;/div&gt;" style="swimlane;fontStyle=1;align=center;verticalAlign=top;childLayout=stackLayout;horizontal=1;startSize=40;horizontalStack=0;resizeParent=1;resizeParentMax=0;resizeLast=0;collapsible=1;marginBottom=0;whiteSpace=wrap;html=1;fillColor=#f5f5f5;strokeColor=#666666;fontColor=#333333;" parent="1" vertex="1">
          <mxGeometry x="80" y="750" width="200" height="134" as="geometry" />
        </mxCell>
        <mxCell id="nLrEIry3QS9Q7PKGFImk-2" value="&lt;div&gt;...&lt;/div&gt;&lt;div&gt;&lt;br&gt;&lt;/div&gt;" style="text;strokeColor=#d6b656;fillColor=#fff2cc;align=left;verticalAlign=top;spacingLeft=4;spacingRight=4;overflow=hidden;rotatable=0;points=[[0,0.5],[1,0.5]];portConstraint=eastwest;whiteSpace=wrap;html=1;" parent="nLrEIry3QS9Q7PKGFImk-1" vertex="1">
          <mxGeometry y="40" width="200" height="34" as="geometry" />
        </mxCell>
        <mxCell id="nLrEIry3QS9Q7PKGFImk-3" value="&lt;div style=&quot;line-height: 140%;&quot;&gt;&amp;nbsp;aretes() : List&amp;lt;Trancon&amp;gt;&lt;br&gt;&lt;/div&gt;&lt;div style=&quot;line-height: 140%;&quot;&gt;&amp;nbsp;poids() : double&lt;/div&gt;&lt;div&gt;&lt;br&gt;&lt;/div&gt;" style="text;strokeColor=#d79b00;fillColor=#ffe6cc;align=left;verticalAlign=top;spacingLeft=4;spacingRight=4;overflow=hidden;rotatable=0;points=[[0,0.5],[1,0.5]];portConstraint=eastwest;whiteSpace=wrap;html=1;" parent="nLrEIry3QS9Q7PKGFImk-1" vertex="1">
          <mxGeometry y="74" width="200" height="60" as="geometry" />
        </mxCell>
        <mxCell id="nLrEIry3QS9Q7PKGFImk-4" style="edgeStyle=orthogonalEdgeStyle;rounded=0;orthogonalLoop=1;jettySize=auto;html=1;entryX=0.004;entryY=0.357;entryDx=0;entryDy=0;dashed=1;endArrow=block;endFill=0;exitX=1.003;exitY=0.461;exitDx=0;exitDy=0;exitPerimeter=0;entryPerimeter=0;" parent="1" source="FHRovXxU-aTZrbRf6lEy-36" target="FHRovXxU-aTZrbRf6lEy-40" edge="1">
          <mxGeometry relative="1" as="geometry">
            <mxPoint x="680.01" y="129.39400000000006" as="sourcePoint" />
            <mxPoint x="1018.7900000000002" y="100.61" as="targetPoint" />
            <Array as="points" />
          </mxGeometry>
        </mxCell>
        <mxCell id="nLrEIry3QS9Q7PKGFImk-9" value="Route" style="swimlane;fontStyle=1;align=center;verticalAlign=top;childLayout=stackLayout;horizontal=1;startSize=26;horizontalStack=0;resizeParent=1;resizeParentMax=0;resizeLast=0;collapsible=1;marginBottom=0;whiteSpace=wrap;html=1;fillColor=#f5f5f5;strokeColor=#666666;fontColor=#333333;" parent="1" vertex="1">
          <mxGeometry x="580" y="900" width="370" height="170" as="geometry" />
        </mxCell>
        <mxCell id="nLrEIry3QS9Q7PKGFImk-10" value="- poids : double" style="text;strokeColor=#d6b656;fillColor=#fff2cc;align=left;verticalAlign=top;spacingLeft=4;spacingRight=4;overflow=hidden;rotatable=0;points=[[0,0.5],[1,0.5]];portConstraint=eastwest;whiteSpace=wrap;html=1;" parent="nLrEIry3QS9Q7PKGFImk-9" vertex="1">
          <mxGeometry y="26" width="370" height="34" as="geometry" />
        </mxCell>
        <mxCell id="nLrEIry3QS9Q7PKGFImk-11" value="&lt;div style=&quot;line-height: 140%;&quot;&gt;+ Route(List&amp;lt;Trancon&amp;gt;, double)&lt;/div&gt;&lt;div style=&quot;line-height: 140%;&quot;&gt;+ aretes() : List&amp;lt;Trancon&amp;gt;&lt;/div&gt;&lt;div style=&quot;line-height: 140%;&quot;&gt;+ poids() : double&lt;/div&gt;&lt;div style=&quot;line-height: 140%;&quot;&gt;+ setAretes(List&amp;lt;Trancon&amp;gt;) : void&lt;/div&gt;&lt;div style=&quot;line-height: 140%;&quot;&gt;+ setPoids(double) : void&lt;/div&gt;&lt;div style=&quot;line-height: 140%;&quot;&gt;+ conpareTo(Route) : int&lt;/div&gt;" style="text;strokeColor=#d79b00;fillColor=#ffe6cc;align=left;verticalAlign=top;spacingLeft=4;spacingRight=4;overflow=hidden;rotatable=0;points=[[0,0.5],[1,0.5]];portConstraint=eastwest;whiteSpace=wrap;html=1;" parent="nLrEIry3QS9Q7PKGFImk-9" vertex="1">
          <mxGeometry y="60" width="370" height="110" as="geometry" />
        </mxCell>
        <mxCell id="nLrEIry3QS9Q7PKGFImk-12" value="" style="endArrow=classic;html=1;rounded=0;entryX=1;entryY=0.5;entryDx=0;entryDy=0;exitX=0.997;exitY=0.307;exitDx=0;exitDy=0;exitPerimeter=0;" parent="1" source="nLrEIry3QS9Q7PKGFImk-11" target="FHRovXxU-aTZrbRf6lEy-17" edge="1">
          <mxGeometry width="50" height="50" relative="1" as="geometry">
            <mxPoint x="2279" y="689" as="sourcePoint" />
            <mxPoint x="2210" y="210" as="targetPoint" />
            <Array as="points">
              <mxPoint x="2380" y="990" />
              <mxPoint x="2380" y="117" />
            </Array>
          </mxGeometry>
        </mxCell>
        <mxCell id="nLrEIry3QS9Q7PKGFImk-13" value="- aretes" style="text;html=1;align=center;verticalAlign=middle;resizable=0;points=[];autosize=1;strokeColor=none;fillColor=none;" parent="1" vertex="1">
          <mxGeometry x="2210" y="120" width="60" height="30" as="geometry" />
        </mxCell>
        <mxCell id="nLrEIry3QS9Q7PKGFImk-14" value="0...*" style="text;html=1;align=center;verticalAlign=middle;resizable=0;points=[];autosize=1;strokeColor=none;fillColor=none;" parent="1" vertex="1">
          <mxGeometry x="2210" y="90" width="40" height="30" as="geometry" />
        </mxCell>
        <mxCell id="nLrEIry3QS9Q7PKGFImk-15" style="edgeStyle=orthogonalEdgeStyle;rounded=0;orthogonalLoop=1;jettySize=auto;html=1;entryX=0.426;entryY=-0.004;entryDx=0;entryDy=0;dashed=1;endArrow=none;endFill=0;exitX=1;exitY=0.25;exitDx=0;exitDy=0;entryPerimeter=0;startArrow=block;startFill=0;" parent="1" source="nLrEIry3QS9Q7PKGFImk-1" target="nLrEIry3QS9Q7PKGFImk-9" edge="1">
          <mxGeometry relative="1" as="geometry">
            <mxPoint x="420" y="784.47" as="sourcePoint" />
            <mxPoint x="729" y="784.47" as="targetPoint" />
            <Array as="points" />
          </mxGeometry>
        </mxCell>
        <mxCell id="nLrEIry3QS9Q7PKGFImk-16" value="&lt;div&gt;≪interface≫&lt;/div&gt;&lt;div&gt;Comparable&lt;/div&gt;" style="swimlane;fontStyle=1;align=center;verticalAlign=top;childLayout=stackLayout;horizontal=1;startSize=40;horizontalStack=0;resizeParent=1;resizeParentMax=0;resizeLast=0;collapsible=1;marginBottom=0;whiteSpace=wrap;html=1;fillColor=#f5f5f5;strokeColor=#666666;fontColor=#333333;" parent="1" vertex="1">
          <mxGeometry x="80" y="940" width="200" height="134" as="geometry" />
        </mxCell>
        <mxCell id="nLrEIry3QS9Q7PKGFImk-17" value="&lt;div&gt;...&lt;/div&gt;&lt;div&gt;&lt;br&gt;&lt;/div&gt;" style="text;strokeColor=#d6b656;fillColor=#fff2cc;align=left;verticalAlign=top;spacingLeft=4;spacingRight=4;overflow=hidden;rotatable=0;points=[[0,0.5],[1,0.5]];portConstraint=eastwest;whiteSpace=wrap;html=1;" parent="nLrEIry3QS9Q7PKGFImk-16" vertex="1">
          <mxGeometry y="40" width="200" height="34" as="geometry" />
        </mxCell>
        <mxCell id="nLrEIry3QS9Q7PKGFImk-18" value="&lt;div style=&quot;line-height: 140%;&quot;&gt;&amp;nbsp;compareTo() : int&lt;/div&gt;" style="text;strokeColor=#d79b00;fillColor=#ffe6cc;align=left;verticalAlign=top;spacingLeft=4;spacingRight=4;overflow=hidden;rotatable=0;points=[[0,0.5],[1,0.5]];portConstraint=eastwest;whiteSpace=wrap;html=1;" parent="nLrEIry3QS9Q7PKGFImk-16" vertex="1">
          <mxGeometry y="74" width="200" height="60" as="geometry" />
        </mxCell>
        <mxCell id="nLrEIry3QS9Q7PKGFImk-19" value="" style="edgeStyle=none;orthogonalLoop=1;jettySize=auto;html=1;rounded=0;entryX=0.002;entryY=0.319;entryDx=0;entryDy=0;entryPerimeter=0;exitX=1;exitY=0.5;exitDx=0;exitDy=0;dashed=1;startArrow=block;startFill=0;endArrow=none;endFill=0;" parent="1" source="nLrEIry3QS9Q7PKGFImk-17" target="nLrEIry3QS9Q7PKGFImk-11" edge="1">
          <mxGeometry width="100" relative="1" as="geometry">
            <mxPoint x="390" y="1050" as="sourcePoint" />
            <mxPoint x="490" y="1050" as="targetPoint" />
            <Array as="points" />
          </mxGeometry>
        </mxCell>
      </root>
    </mxGraphModel>
  </diagram>
</mxfile>
